<svg width="124" height="123" viewBox="0 0 124 123" fill="none" xmlns="http://www.w3.org/2000/svg">
<path d="M29.7755 79.5857C15.8515 83.1952 4.21558 88.9085 4.21558 95.339C4.21558 106.255 30.1267 115.104 62.0896 115.104C94.0526 115.104 119.964 106.255 119.964 95.339C119.964 88.9439 108.328 83.1983 94.5349 79.5857" stroke="#292D32" stroke-width="7.68317"/>
<path d="M55.7378 14.9791L34.8863 22.835C30.0808 24.6318 26.1528 30.3148 26.1528 35.4128V66.4604C26.1528 71.3912 29.4122 77.8681 33.3819 80.835L51.3502 94.2485C57.2421 98.6779 66.9367 98.6779 72.8286 94.2485L90.7969 80.835C94.7666 77.8681 98.026 71.3912 98.026 66.4604V35.4128C98.026 30.2731 94.098 24.5901 89.2926 22.7932L68.441 14.9791C64.8891 13.6837 59.2061 13.6837 55.7378 14.9791Z" stroke="#292D32" stroke-width="7.68317" stroke-linecap="round" stroke-linejoin="round"/>
<path d="M62.0477 57.8939C66.6633 57.8939 70.405 54.1522 70.405 49.5365C70.405 44.9209 66.6633 41.1792 62.0477 41.1792C57.432 41.1792 53.6903 44.9209 53.6903 49.5365C53.6903 54.1522 57.432 57.8939 62.0477 57.8939Z" stroke="#292D32" stroke-width="7.68317" stroke-miterlimit="10" stroke-linecap="round" stroke-linejoin="round"/>
<path d="M62.0477 57.894V70.4301" stroke="#292D32" stroke-width="7.68317" stroke-miterlimit="10" stroke-linecap="round" stroke-linejoin="round"/>
</svg>
