<svg width="128" height="132" viewBox="0 0 128 132" fill="none" xmlns="http://www.w3.org/2000/svg">
<rect width="128" height="132" fill="#F5F5F5"/>
<rect x="-145.5" y="-168.5" width="429" height="927" fill="white"/>
<path d="M31.7755 84.5857C17.8515 88.1952 6.21558 93.9085 6.21558 100.339C6.21558 111.255 32.1267 120.104 64.0896 120.104C96.0526 120.104 121.964 111.255 121.964 100.339C121.964 93.9439 110.328 88.1983 96.5349 84.5857" stroke="#858585" stroke-width="7.68317"/>
<path d="M57.5585 20.2181L36.7069 28.074C31.9015 29.8709 27.9735 35.5539 27.9735 40.6518V71.6994C27.9735 76.6302 31.2329 83.1071 35.2026 86.074L53.1709 99.4875C59.0628 103.917 68.7573 103.917 74.6493 99.4875L92.6176 86.074C96.5873 83.1071 99.8467 76.6302 99.8467 71.6994V40.6518C99.8467 35.5121 95.9187 29.8291 91.1132 28.0322L70.2617 20.2181C66.7098 18.9227 61.0268 18.9227 57.5585 20.2181Z" fill="white" stroke="#858585" stroke-width="7.68317" stroke-linecap="round" stroke-linejoin="round"/>
<path d="M63.8683 63.1331C68.484 63.1331 72.2257 59.3914 72.2257 54.7758C72.2257 50.1602 68.484 46.4185 63.8683 46.4185C59.2527 46.4185 55.511 50.1602 55.511 54.7758C55.511 59.3914 59.2527 63.1331 63.8683 63.1331Z" stroke="#858585" stroke-width="7.68317" stroke-miterlimit="10" stroke-linecap="round" stroke-linejoin="round"/>
<path d="M63.8684 63.1331V75.6691" stroke="#858585" stroke-width="7.68317" stroke-miterlimit="10" stroke-linecap="round" stroke-linejoin="round"/>
<path d="M33.7755 79.5857C19.8515 83.1952 8.21558 88.9085 8.21558 95.339C8.21558 106.255 34.1267 115.104 66.0896 115.104C98.0526 115.104 123.964 106.255 123.964 95.339C123.964 88.9439 112.328 83.1983 98.5349 79.5857" stroke="#292D32" stroke-width="7.68317"/>
<path d="M59.7378 14.9791L38.8863 22.835C34.0808 24.6318 30.1528 30.3148 30.1528 35.4128V66.4604C30.1528 71.3912 33.4122 77.8681 37.3819 80.835L55.3502 94.2485C61.2421 98.6779 70.9367 98.6779 76.8286 94.2485L94.7969 80.835C98.7666 77.8681 102.026 71.3912 102.026 66.4604V35.4128C102.026 30.2731 98.098 24.5901 93.2926 22.7932L72.441 14.9791C68.8891 13.6837 63.2061 13.6837 59.7378 14.9791Z" stroke="#292D32" stroke-width="7.68317" stroke-linecap="round" stroke-linejoin="round"/>
<path d="M66.0477 57.8939C70.6633 57.8939 74.405 54.1522 74.405 49.5365C74.405 44.9209 70.6633 41.1792 66.0477 41.1792C61.432 41.1792 57.6903 44.9209 57.6903 49.5365C57.6903 54.1522 61.432 57.8939 66.0477 57.8939Z" stroke="#292D32" stroke-width="7.68317" stroke-miterlimit="10" stroke-linecap="round" stroke-linejoin="round"/>
<path d="M66.0477 57.894V70.4301" stroke="#292D32" stroke-width="7.68317" stroke-miterlimit="10" stroke-linecap="round" stroke-linejoin="round"/>
<rect x="-145.5" y="-168.5" width="429" height="927" stroke="black"/>
</svg>
