<svg width="242" height="241" viewBox="0 0 242 241" fill="none" xmlns="http://www.w3.org/2000/svg">
<rect width="242" height="241" fill="#F5F5F5"/>
<rect x="-93.5" y="-168.5" width="429" height="927" fill="white"/>
<path d="M102.886 31.32L52.9417 50.1369C41.4314 54.4407 32.0229 68.0529 32.0229 80.2639V154.63C32.0229 166.441 39.8299 181.955 49.3385 189.061L92.377 221.19C106.49 231.8 129.71 231.8 143.823 221.19L186.862 189.061C196.37 181.955 204.177 166.441 204.177 154.63V80.2639C204.177 67.9528 194.769 54.3406 183.258 50.0368L133.314 31.32C124.806 28.2172 111.194 28.2172 102.886 31.32Z" stroke="#878787" stroke-width="15.0135" stroke-linecap="round" stroke-linejoin="round"/>
<path d="M88.4734 127.806L104.588 143.921L147.626 100.882" stroke="#878787" stroke-width="15.0135" stroke-linecap="round" stroke-linejoin="round"/>
<path d="M105.886 22.32L55.9417 41.1369C44.4314 45.4407 35.0229 59.0529 35.0229 71.2639V145.63C35.0229 157.441 42.8299 172.955 52.3385 180.061L95.377 212.19C109.49 222.8 132.71 222.8 146.823 212.19L189.862 180.061C199.37 172.955 207.177 157.441 207.177 145.63V71.2639C207.177 58.9528 197.769 45.3406 186.258 41.0368L136.314 22.32C127.806 19.2172 114.194 19.2172 105.886 22.32Z" stroke="#292D32" stroke-width="15.0135" stroke-linecap="round" stroke-linejoin="round"/>
<path d="M91.4734 118.806L107.588 134.921L150.626 91.8823" stroke="#292D32" stroke-width="15.0135" stroke-linecap="round" stroke-linejoin="round"/>
<rect x="-93.5" y="-168.5" width="429" height="927" stroke="black"/>
</svg>
